# ProBuilder 4.0.5
# https://unity3d.com/unity/features/worldbuilding/probuilder
# 7/27/2019 2:14:33 AM

mtllib ./Floor.mtl
o Floor

g Floor
v 0 0 0
v -1 0 0
v 0 1 0
v -1 1 0
v -7 0 1.072883E-06
v -7 0 -0.9999992
v -7 1 1.072883E-06
v -7 1 -0.9999992
v -1.000002 0 -6.999999
v -1.668929E-06 0 -6.999999
v -1.000002 1 -6.999999
v -1.668929E-06 1 -6.999999
v 0 0 -1
v 0 1 -1
v -1 1 -1
v -1 0 -1
v -2 0 -1.192093E-07
v -2 0 -1
v -2 1 -1.192093E-07
v -2.000001 0 -7
v -2.000001 1 -7
v -2 1 -1
v -3 0 -2.384186E-07
v -3 0 -1
v -3 1 -2.384186E-07
v -3.000001 0 -7
v -3.000001 1 -7
v -3 1 -1
v -4 0 -3.576279E-07
v -4 0 -1
v -4 1 -3.576279E-07
v -4.000002 0 -7
v -4.000002 1 -7
v -4 1 -1
v -5 0 8.940722E-08
v -5 0 -1
v -5 1 8.940722E-08
v -5.000002 0 -7
v -5.000002 1 -7
v -5 1 -1
v -6 0 5.364421E-07
v -6.000001 0 -0.9999996
v -6 1 5.364421E-07
v -6.000003 0 -7
v -6.000003 1 -7
v -6.000001 1 -0.9999996
v -7.000003 0 -7
v -7.000003 1 -7
v -1 0 -2
v 4.547474E-13 0 -2
v -2 0 -2
v 4.547474E-13 1 -2
v -1 1 -2
v -2 1 -2
v -3 0 -2
v -3 1 -2
v -4 0 -2
v -4 1 -2
v -5 0 -2
v -5 1 -2
v -6.000001 0 -2
v -6.000001 1 -2
v -7 0 -1.999999
v -7 1 -1.999999
v -1 0 -3
v 6.82121E-13 0 -3
v -2 0 -3
v 6.82121E-13 1 -3
v -1 1 -3
v -2 1 -3
v -3 0 -3
v -3 1 -3
v -4 0 -3
v -4 1 -3
v -5 0 -3
v -5 1 -3
v -6.000001 0 -3
v -6.000001 1 -3
v -7.000001 0 -3
v -7.000001 1 -3
v -1 0 -4
v -2.384179E-07 0 -4
v -2 0 -4
v -2.384179E-07 1 -4
v -1 1 -4
v -2 1 -4
v -3 0 -4
v -3 1 -4
v -4.000001 0 -4
v -4.000001 1 -4
v -5.000001 0 -4
v -5.000001 1 -4
v -6.000001 0 -4
v -6.000001 1 -4
v -7.000001 0 -4
v -7.000001 1 -4
v -1.000001 0 -5
v -7.152552E-07 0 -5
v -2.000001 0 -5
v -7.152552E-07 1 -5
v -1.000001 1 -5
v -2.000001 1 -5
v -3.000001 0 -5.000001
v -3.000001 1 -5.000001
v -4.000001 0 -5.000001
v -4.000001 1 -5.000001
v -5.000001 0 -5
v -5.000001 1 -5
v -6.000002 0 -5
v -6.000002 1 -5
v -7.000002 0 -5
v -7.000002 1 -5
v -1.000001 0 -6
v -1.192092E-06 0 -6
v -2.000001 0 -6
v -1.192092E-06 1 -6
v -1.000001 1 -6
v -2.000001 1 -6
v -3.000001 0 -6.000001
v -3.000001 1 -6.000001
v -4.000002 0 -6.000001
v -4.000002 1 -6.000001
v -5.000002 0 -6
v -5.000002 1 -6
v -6.000002 0 -6
v -6.000002 1 -6
v -7.000003 0 -6
v -7.000003 1 -6

vt 0 0
vt -1 0
vt 0 1
vt -1 1
vt 1.000002 0
vt 1.000002 1
vt 0 -1
vt 1 -1
vt -1 -1
vt -2 -1.192093E-07
vt -2 -1
vt -2 1
vt 2.000005 0
vt 2.000005 1
vt 2 -1
vt -3 -2.384186E-07
vt -3 -1
vt -3 1
vt 3.000008 0
vt 3.000008 1
vt 3 -1
vt -4 -3.576279E-07
vt -4 -1
vt -4 1
vt 4.000002 0
vt 4.000002 1
vt 4 -1
vt -5 8.940722E-08
vt -5 -1
vt -5 1
vt 3.999999 0
vt 3.999999 1
vt 4.999999 0
vt 4.999999 1
vt 5 -1
vt 5 8.940722E-08
vt -6 5.364421E-07
vt -6.000001 -0.9999996
vt -6 1
vt 5.000002 1
vt 6.000003 0
vt 6.000003 1
vt 6.000001 -0.9999996
vt -7 1.072883E-06
vt -7 -0.9999992
vt -7 1
vt 6 0
vt 6 1
vt 7 0
vt 7 1
vt 7 -0.9999992
vt 7 1.072883E-06
vt -1 -2
vt 4.547474E-13 -2
vt -2 -2
vt 1 -2
vt 2 -2
vt -3 -2
vt 3 -2
vt -4 -2
vt 4 -2
vt -5 -2
vt 5 -2
vt -6.000001 -2
vt 6.000001 -2
vt -7 -1.999999
vt 7 -1.999999
vt -1 -3
vt 6.82121E-13 -3
vt -2 -3
vt 1 -3
vt 2 -3
vt -3 -3
vt 3 -3
vt -4 -3
vt 4 -3
vt -5 -3
vt 5 -3
vt -6.000001 -3
vt 6.000001 -3
vt -7.000001 -3
vt 7.000001 -3
vt -1 -4
vt -2.384179E-07 -4
vt -2 -4
vt 1 -4
vt 2 -4
vt -3 -4
vt 3 -4
vt -4.000001 -4
vt 4.000001 -4
vt -5.000001 -4
vt 5.000001 -4
vt -6.000001 -4
vt 6.000001 -4
vt -7.000001 -4
vt 7.000001 -4
vt -1.000001 -5
vt -7.152552E-07 -5
vt -2.000001 -5
vt 1.000001 -5
vt 2.000001 -5
vt -3.000001 -5.000001
vt 3.000001 -5.000001
vt -4.000001 -5.000001
vt 4.000001 -5.000001
vt -5.000001 -5
vt 5.000001 -5
vt -6.000002 -5
vt 6.000002 -5
vt -7.000002 -5
vt 7.000002 -5
vt -1.000001 -6
vt -1.192092E-06 -6
vt -2.000001 -6
vt 1.000001 -6
vt 2.000001 -6
vt -3.000001 -6.000001
vt 3.000001 -6.000001
vt -4.000002 -6.000001
vt 4.000002 -6.000001
vt -5.000002 -6
vt 5.000002 -6
vt -6.000002 -6
vt 6.000002 -6
vt -7.000003 -6
vt 7.000003 -6
vt -1.000002 -6.999999
vt -1.668929E-06 -6.999999
vt -2.000001 -7
vt 6.999999 1
vt 1.000002 -6.999999
vt 2.000001 -7
vt -3.000001 -7
vt 3.000001 -7
vt -4.000002 -7
vt 4.000002 -7
vt -5.000002 -7
vt 5.000002 -7
vt -6.000003 -7
vt 6.000003 -7
vt -7.000003 -7
vt 7.000003 -7
vt -7.000003 1
vt -7.000003 0

vn 0 0 1
vn -1 0 4.76837E-07
vn 0 0 -1
vn 1 0 0
vn 0 1 0
vn 0 -1 0

g Floor
usemtl ProBuilderDefault
f 3/3/1 4/4/1 2/2/1 1/1/1
f 7/3/2 8/4/2 6/2/2 5/1/2
f 11/6/3 12/3/3 10/1/3 9/5/3
f 14/6/4 3/3/4 1/1/4 13/5/4
f 14/7/5 15/8/5 4/5/5 3/1/5
f 1/1/6 2/2/6 16/9/6 13/7/6
f 17/10/6 18/11/6 16/9/6 2/2/6
f 19/12/1 17/10/1 2/2/1 4/4/1
f 20/13/3 21/14/3 11/6/3 9/5/3
f 22/15/5 19/13/5 4/5/5 15/8/5
f 23/16/6 24/17/6 18/11/6 17/10/6
f 25/18/1 23/16/1 17/10/1 19/12/1
f 26/19/3 27/20/3 21/14/3 20/13/3
f 28/21/5 25/19/5 19/13/5 22/15/5
f 29/22/6 30/23/6 24/17/6 23/16/6
f 31/24/1 29/22/1 23/16/1 25/18/1
f 32/25/3 33/26/3 27/20/3 26/19/3
f 34/27/5 31/25/5 25/19/5 28/21/5
f 35/28/6 36/29/6 30/23/6 29/22/6
f 37/30/1 35/28/1 29/22/1 31/24/1
f 38/33/3 39/34/3 33/32/3 32/31/3
f 40/35/5 37/36/5 31/25/5 34/27/5
f 41/37/6 42/38/6 36/29/6 35/28/6
f 43/39/1 41/37/1 35/28/1 37/30/1
f 44/41/3 45/42/3 39/40/3 38/36/3
f 46/43/5 43/41/5 37/36/5 40/35/5
f 5/44/6 6/45/6 42/38/6 41/37/6
f 7/46/1 5/44/1 41/37/1 43/39/1
f 47/49/3 48/50/3 45/48/3 44/47/3
f 8/51/5 7/52/5 43/41/5 46/43/5
f 49/53/6 50/54/6 13/7/6 16/9/6
f 51/55/6 49/53/6 16/9/6 18/11/6
f 50/13/4 52/14/4 14/6/4 13/5/4
f 52/54/5 53/56/5 15/8/5 14/7/5
f 53/56/5 54/57/5 22/15/5 15/8/5
f 55/58/6 51/55/6 18/11/6 24/17/6
f 54/57/5 56/59/5 28/21/5 22/15/5
f 57/60/6 55/58/6 24/17/6 30/23/6
f 56/59/5 58/61/5 34/27/5 28/21/5
f 59/62/6 57/60/6 30/23/6 36/29/6
f 58/61/5 60/63/5 40/35/5 34/27/5
f 61/64/6 59/62/6 36/29/6 42/38/6
f 60/63/5 62/65/5 46/43/5 40/35/5
f 63/66/6 61/64/6 42/38/6 6/45/6
f 62/65/5 64/67/5 8/51/5 46/43/5
f 64/12/2 63/10/2 6/2/2 8/4/2
f 65/68/6 66/69/6 50/54/6 49/53/6
f 67/70/6 65/68/6 49/53/6 51/55/6
f 66/19/4 68/20/4 52/14/4 50/13/4
f 68/69/5 69/71/5 53/56/5 52/54/5
f 69/71/5 70/72/5 54/57/5 53/56/5
f 71/73/6 67/70/6 51/55/6 55/58/6
f 70/72/5 72/74/5 56/59/5 54/57/5
f 73/75/6 71/73/6 55/58/6 57/60/6
f 72/74/5 74/76/5 58/61/5 56/59/5
f 75/77/6 73/75/6 57/60/6 59/62/6
f 74/76/5 76/78/5 60/63/5 58/61/5
f 77/79/6 75/77/6 59/62/6 61/64/6
f 76/78/5 78/80/5 62/65/5 60/63/5
f 79/81/6 77/79/6 61/64/6 63/66/6
f 78/80/5 80/82/5 64/67/5 62/65/5
f 80/18/2 79/16/2 63/10/2 64/12/2
f 81/83/6 82/84/6 66/69/6 65/68/6
f 83/85/6 81/83/6 65/68/6 67/70/6
f 82/25/4 84/26/4 68/20/4 66/19/4
f 84/84/5 85/86/5 69/71/5 68/69/5
f 85/86/5 86/87/5 70/72/5 69/71/5
f 87/88/6 83/85/6 67/70/6 71/73/6
f 86/87/5 88/89/5 72/74/5 70/72/5
f 89/90/6 87/88/6 71/73/6 73/75/6
f 88/89/5 90/91/5 74/76/5 72/74/5
f 91/92/6 89/90/6 73/75/6 75/77/6
f 90/91/5 92/93/5 76/78/5 74/76/5
f 93/94/6 91/92/6 75/77/6 77/79/6
f 92/93/5 94/95/5 78/80/5 76/78/5
f 95/96/6 93/94/6 77/79/6 79/81/6
f 94/95/5 96/97/5 80/82/5 78/80/5
f 96/24/2 95/22/2 79/16/2 80/18/2
f 97/98/6 98/99/6 82/84/6 81/83/6
f 99/100/6 97/98/6 81/83/6 83/85/6
f 98/36/4 100/40/4 84/26/4 82/25/4
f 100/99/5 101/101/5 85/86/5 84/84/5
f 101/101/5 102/102/5 86/87/5 85/86/5
f 103/103/6 99/100/6 83/85/6 87/88/6
f 102/102/5 104/104/5 88/89/5 86/87/5
f 105/105/6 103/103/6 87/88/6 89/90/6
f 104/104/5 106/106/5 90/91/5 88/89/5
f 107/107/6 105/105/6 89/90/6 91/92/6
f 106/106/5 108/108/5 92/93/5 90/91/5
f 109/109/6 107/107/6 91/92/6 93/94/6
f 108/108/5 110/110/5 94/95/5 92/93/5
f 111/111/6 109/109/6 93/94/6 95/96/6
f 110/110/5 112/112/5 96/97/5 94/95/5
f 112/30/2 111/28/2 95/22/2 96/24/2
f 113/113/6 114/114/6 98/99/6 97/98/6
f 115/115/6 113/113/6 97/98/6 99/100/6
f 114/41/4 116/42/4 100/40/4 98/36/4
f 116/114/5 117/116/5 101/101/5 100/99/5
f 117/116/5 118/117/5 102/102/5 101/101/5
f 119/118/6 115/115/6 99/100/6 103/103/6
f 118/117/5 120/119/5 104/104/5 102/102/5
f 121/120/6 119/118/6 103/103/6 105/105/6
f 120/119/5 122/121/5 106/106/5 104/104/5
f 123/122/6 121/120/6 105/105/6 107/107/6
f 122/121/5 124/123/5 108/108/5 106/106/5
f 125/124/6 123/122/6 107/107/6 109/109/6
f 124/123/5 126/125/5 110/110/5 108/108/5
f 127/126/6 125/124/6 109/109/6 111/111/6
f 126/125/5 128/127/5 112/112/5 110/110/5
f 128/39/2 127/37/2 111/28/2 112/30/2
f 9/128/6 10/129/6 114/114/6 113/113/6
f 20/130/6 9/128/6 113/113/6 115/115/6
f 10/52/4 12/131/4 116/42/4 114/41/4
f 12/129/5 11/132/5 117/116/5 116/114/5
f 11/132/5 21/133/5 118/117/5 117/116/5
f 26/134/6 20/130/6 115/115/6 119/118/6
f 21/133/5 27/135/5 120/119/5 118/117/5
f 32/136/6 26/134/6 119/118/6 121/120/6
f 27/135/5 33/137/5 122/121/5 120/119/5
f 38/138/6 32/136/6 121/120/6 123/122/6
f 33/137/5 39/139/5 124/123/5 122/121/5
f 44/140/6 38/138/6 123/122/6 125/124/6
f 39/139/5 45/141/5 126/125/5 124/123/5
f 47/142/6 44/140/6 125/124/6 127/126/6
f 45/141/5 48/143/5 128/127/5 126/125/5
f 48/144/2 47/145/2 127/37/2 128/39/2

