# ProBuilder 4.0.5
# https://unity3d.com/unity/features/worldbuilding/probuilder
# 7/27/2019 2:16:32 AM

mtllib ./Hut.mtl
o Hut

g Hut
v -3 1 -2
v -4 1 -2
v -3 2 -2
v -4 2 -2
v -5 1 -2
v -5 1 -3
v -5 2 -2
v -5 2 -3
v -4 1 -3
v -3 1 -3
v -4 2 -3
v -3 2 -3
v -2 1 -3
v -2 1 -2
v -2 2 -3
v -2 2 -2
v -3 4 -2
v -4 4 -2
v -3 4 -3
v -4 4 -3
v -3 3 -2
v -4 3 -2
v -2 3 -3
v -2 3 -2
v -5 3 -2
v -5 3 -3
v -4 3 -3
v -3 3 -3
v -2 4 -3
v -2 4 -2
v -5 4 -2
v -5 4 -3
v -4 3 -5
v -3 3 -5
v -4 4 -5
v -3 4 -5
v -4 1 -5
v -4 2 -5
v -5 1 -5
v -5 2 -5
v -5 3 -5
v -5 4 -5
v -4 1 -4
v -4 2 -4
v -5 1 -4
v -4 4 -4
v -5 4 -4
v -5 2 -4
v -4 3 -4
v -5 3 -4
v -3 2 -5
v -3 1 -5
v -2 2 -5
v -2 1 -5
v -2 3 -5
v -2 4 -5
v -3 2 -4
v -3 1 -4
v -2 2 -4
v -2 3 -4
v -2 1 -4
v -3 3 -4
v -2 4 -4
v -3 4 -4

vt 0 0
vt -1 0
vt 0 1
vt -1 1
vt -0.9999998 0
vt -0.9999998 1
vt 1 0
vt 1 1
vt 4.768372E-07 -1
vt 1 -1
vt -1 -1
vt -2.384186E-07 2
vt -1 2
vt 1 2
vt -0.9999998 2
vt -4.768372E-07 3
vt -1 3
vt 1 3
vt -0.9999998 3
vt 1 3
vt -2 1.192093E-07
vt -2 -0.9999998
vt -2 1
vt 2 0
vt 2 1
vt -2 2
vt 2 2
vt -2 3
vt 2 3
vt 2 -0.9999998
vt -2 -2
vt -1 -2
vt 1 -2
vt 2 -2
vt -2 1
vt -2 0
vt -2 2
vt -2 3
vt 3 0
vt 3 1
vt -2 -3
vt -1 -3
vt 1 -3
vt 2 -3
vt -3 1
vt -3 0
vt 3 2
vt -3 2
vt 3 3
vt -3 3
vt 0.9999998 3
vt 0 -2
vt 2 3
vt 0 -3
vt 3 3

vn 0 0 1
vn -1 0 0
vn 0 0 -1
vn 1 0 0
vn 0 1 0
vn 0 -1 0

g Hut
usemtl ProBuilderDefault
f 3/3/1 4/4/1 2/2/1 1/1/1
f 7/3/2 8/6/2 6/5/2 5/1/2
f 11/8/3 12/3/3 10/1/3 9/7/3
f 15/8/4 16/3/4 14/1/4 13/7/4
f 19/9/5 20/10/5 18/7/5 17/1/5
f 1/1/6 2/2/6 9/11/6 10/9/6
f 21/12/1 22/13/1 4/4/1 3/3/1
f 23/14/4 24/12/4 16/3/4 15/8/4
f 25/12/2 26/15/2 8/6/2 7/3/2
f 27/14/3 28/12/3 12/3/3 11/8/3
f 17/16/1 18/17/1 22/13/1 21/12/1
f 29/18/4 30/16/4 24/12/4 23/14/4
f 31/16/2 32/19/2 26/15/2 25/12/2
f 35/20/3 36/16/3 34/12/3 33/14/3
f 5/21/6 6/22/6 9/11/6 2/2/6
f 7/23/1 5/21/1 2/2/1 4/4/1
f 39/24/3 40/25/3 38/8/3 37/7/3
f 25/26/1 7/23/1 4/4/1 22/13/1
f 40/25/3 41/27/3 33/14/3 38/8/3
f 31/28/1 25/26/1 22/13/1 18/17/1
f 41/27/3 42/29/3 35/20/3 33/14/3
f 32/30/5 31/24/5 18/7/5 20/10/5
f 43/24/4 44/25/4 11/8/4 9/7/4
f 45/31/6 43/32/6 9/11/6 6/22/6
f 46/33/5 47/34/5 32/30/5 20/10/5
f 48/35/2 45/36/2 6/5/2 8/6/2
f 44/25/4 49/27/4 27/14/4 11/8/4
f 50/37/2 48/35/2 8/6/2 26/15/2
f 49/27/4 46/29/4 20/20/4 27/14/4
f 47/38/2 50/37/2 26/15/2 32/19/2
f 37/39/4 38/40/4 44/25/4 43/24/4
f 39/41/6 37/42/6 43/32/6 45/31/6
f 35/43/5 42/44/5 47/34/5 46/33/5
f 40/45/2 39/46/2 45/36/2 48/35/2
f 38/40/4 33/47/4 49/27/4 44/25/4
f 41/48/2 40/45/2 48/35/2 50/37/2
f 33/47/4 35/49/4 46/29/4 49/27/4
f 42/50/2 41/48/2 50/37/2 47/38/2
f 13/10/6 14/7/6 1/1/6 10/9/6
f 53/4/3 54/2/3 52/1/3 51/3/3
f 14/7/1 16/8/1 3/3/1 1/1/1
f 55/13/3 53/4/3 51/3/3 34/12/3
f 16/8/1 24/14/1 21/12/1 3/3/1
f 56/17/3 55/13/3 34/12/3 36/16/3
f 24/14/1 30/51/1 17/16/1 21/12/1
f 30/5/5 29/11/5 19/9/5 17/1/5
f 57/23/2 58/21/2 10/2/2 12/4/2
f 59/25/4 60/27/4 23/14/4 15/8/4
f 58/52/6 61/33/6 13/10/6 10/9/6
f 61/24/4 59/25/4 15/8/4 13/7/4
f 62/26/2 57/23/2 12/4/2 28/13/2
f 60/27/4 63/53/4 29/18/4 23/14/4
f 64/28/2 62/26/2 28/13/2 19/17/2
f 63/32/5 64/52/5 19/9/5 29/11/5
f 51/45/2 52/46/2 58/21/2 57/23/2
f 53/40/4 55/47/4 60/27/4 59/25/4
f 52/54/6 54/43/6 61/33/6 58/52/6
f 54/39/4 53/40/4 59/25/4 61/24/4
f 34/48/2 51/45/2 57/23/2 62/26/2
f 55/47/4 56/55/4 63/53/4 60/27/4
f 36/50/2 34/48/2 62/26/2 64/28/2
f 56/42/5 36/54/5 64/52/5 63/32/5
f 49/32/6 62/52/6 28/9/6 27/11/6
f 46/28/2 49/26/2 27/13/2 20/17/2
f 62/27/4 64/29/4 19/20/4 28/14/4
f 64/52/5 46/33/5 20/10/5 19/9/5
f 33/42/6 34/54/6 62/52/6 49/32/6
f 35/50/2 33/48/2 49/26/2 46/28/2
f 34/47/4 36/49/4 64/29/4 62/27/4
f 36/54/5 35/43/5 46/33/5 64/52/5

